<?xml version="1.0" encoding="UTF-8"?>
<svg xmlns="http://www.w3.org/2000/svg" xmlns:xlink="http://www.w3.org/1999/xlink" width="375pt" height="374.999991pt" viewBox="0 0 375 374.999991" version="1.2">
<g id="surface1">
<path style=" stroke:none;fill-rule:nonzero;fill:rgb(50.588989%,77.648926%,15.689087%);fill-opacity:1;" d="M 362.871094 83.554688 L 327.410156 83.554688 L 327.410156 48.113281 L 291.988281 48.113281 L 291.988281 12.667969 L 79.328125 12.667969 L 79.324219 48.113281 L 43.886719 48.113281 L 43.886719 83.554688 L 8.425781 83.554688 L 8.425781 296.214844 L 43.886719 296.214844 L 43.886719 331.65625 L 79.324219 331.65625 L 79.324219 367.105469 L 291.984375 367.105469 L 291.984375 331.65625 L 327.40625 331.65625 L 327.40625 296.214844 L 362.863281 296.214844 L 362.863281 83.554688 "/>
<path style=" stroke:none;fill-rule:nonzero;fill:rgb(5.879211%,5.488586%,4.708862%);fill-opacity:1;" d="M 150.21875 189.886719 L 114.769531 189.886719 L 114.769531 154.445312 L 150.21875 154.445312 L 150.21875 189.886719 "/>
<path style=" stroke:none;fill-rule:nonzero;fill:rgb(5.879211%,5.488586%,4.708862%);fill-opacity:1;" d="M 114.769531 154.445312 L 79.347656 154.445312 L 79.347656 119.011719 L 114.769531 119.011719 L 114.769531 154.445312 "/>
<path style=" stroke:none;fill-rule:nonzero;fill:rgb(5.879211%,5.488586%,4.708862%);fill-opacity:1;" d="M 79.324219 189.886719 L 43.886719 189.886719 L 43.886719 154.445312 L 79.324219 154.445312 L 79.324219 189.886719 "/>
<path style=" stroke:none;fill-rule:nonzero;fill:rgb(5.879211%,5.488586%,4.708862%);fill-opacity:1;" d="M 150.21875 119.011719 L 114.769531 119.011719 L 114.769531 83.574219 L 150.21875 83.574219 L 150.21875 119.011719 "/>
<path style=" stroke:none;fill-rule:nonzero;fill:rgb(5.879211%,5.488586%,4.708862%);fill-opacity:1;" d="M 79.324219 119.011719 L 43.886719 119.011719 L 43.886719 83.574219 L 79.324219 83.574219 L 79.324219 119.011719 "/>
<path style=" stroke:none;fill-rule:nonzero;fill:rgb(5.879211%,5.488586%,4.708862%);fill-opacity:1;" d="M 327.429688 189.886719 L 292.007812 189.886719 L 292.007812 154.445312 L 327.429688 154.445312 L 327.429688 189.886719 "/>
<path style=" stroke:none;fill-rule:nonzero;fill:rgb(5.879211%,5.488586%,4.708862%);fill-opacity:1;" d="M 292.007812 154.445312 L 256.582031 154.445312 L 256.582031 119.011719 L 292.007812 119.011719 L 292.007812 154.445312 "/>
<path style=" stroke:none;fill-rule:nonzero;fill:rgb(5.879211%,5.488586%,4.708862%);fill-opacity:1;" d="M 256.546875 189.886719 L 221.097656 189.886719 L 221.097656 154.445312 L 256.546875 154.445312 L 256.546875 189.886719 "/>
<path style=" stroke:none;fill-rule:nonzero;fill:rgb(5.879211%,5.488586%,4.708862%);fill-opacity:1;" d="M 327.429688 119.011719 L 292.007812 119.011719 L 292.007812 83.574219 L 327.429688 83.574219 L 327.429688 119.011719 "/>
<path style=" stroke:none;fill-rule:nonzero;fill:rgb(5.879211%,5.488586%,4.708862%);fill-opacity:1;" d="M 256.546875 119.011719 L 221.097656 119.011719 L 221.097656 83.574219 L 256.546875 83.574219 L 256.546875 119.011719 "/>
<path style=" stroke:none;fill-rule:nonzero;fill:rgb(5.879211%,5.488586%,4.708862%);fill-opacity:1;" d="M 327.429688 260.765625 L 43.914062 260.765625 L 43.917969 225.324219 L 327.433594 225.324219 L 327.433594 260.765625 "/>
<path style=" stroke:none;fill-rule:nonzero;fill:rgb(91.758728%,38.42926%,49.798584%);fill-opacity:1;" d="M 256.582031 260.765625 L 114.8125 260.765625 L 114.8125 296.214844 L 150.246094 296.214844 L 150.246094 331.65625 L 221.144531 331.65625 L 221.144531 296.214844 L 256.582031 296.214844 L 256.582031 260.765625 "/>
</g>
</svg>
