<?xml version="1.0" encoding="UTF-8"?>
<svg xmlns="http://www.w3.org/2000/svg" xmlns:xlink="http://www.w3.org/1999/xlink" width="375pt" height="374.999991pt" viewBox="0 0 375 374.999991" version="1.2">
<g id="surface1">
<path style=" stroke:none;fill-rule:nonzero;fill:rgb(100%,100%,100%);fill-opacity:1;" d="M 138.585938 0 C 138.050781 0 137.523438 0.0507812 136.996094 0.15625 C 136.472656 0.261719 135.960938 0.414062 135.46875 0.621094 C 134.972656 0.824219 134.503906 1.078125 134.058594 1.375 C 133.613281 1.671875 133.199219 2.007812 132.824219 2.386719 C 132.445312 2.765625 132.105469 3.179688 131.808594 3.625 C 131.511719 4.066406 131.261719 4.539062 131.054688 5.03125 C 130.851562 5.527344 130.695312 6.035156 130.589844 6.5625 C 130.488281 7.085938 130.433594 7.617188 130.433594 8.152344 C 130.433594 8.6875 130.488281 9.21875 130.589844 9.742188 C 130.695312 10.265625 130.851562 10.777344 131.054688 11.273438 C 131.261719 11.765625 131.511719 12.234375 131.808594 12.679688 C 132.105469 13.125 132.445312 13.539062 132.824219 13.917969 C 133.199219 14.296875 133.613281 14.632812 134.058594 14.929688 C 134.503906 15.226562 134.972656 15.480469 135.46875 15.683594 C 135.960938 15.886719 136.472656 16.042969 136.996094 16.148438 C 137.523438 16.253906 138.050781 16.304688 138.585938 16.304688 C 139.121094 16.304688 139.652344 16.253906 140.175781 16.148438 C 140.703125 16.042969 141.210938 15.886719 141.707031 15.683594 C 142.199219 15.480469 142.671875 15.226562 143.117188 14.929688 C 143.5625 14.632812 143.972656 14.296875 144.351562 13.917969 C 144.730469 13.539062 145.066406 13.125 145.363281 12.679688 C 145.664062 12.234375 145.914062 11.765625 146.117188 11.273438 C 146.324219 10.777344 146.476562 10.265625 146.582031 9.742188 C 146.6875 9.21875 146.738281 8.6875 146.738281 8.152344 C 146.738281 7.617188 146.6875 7.085938 146.582031 6.5625 C 146.476562 6.035156 146.324219 5.527344 146.117188 5.03125 C 145.914062 4.539062 145.664062 4.066406 145.363281 3.625 C 145.066406 3.179688 144.730469 2.765625 144.351562 2.386719 C 143.972656 2.007812 143.5625 1.671875 143.117188 1.375 C 142.671875 1.078125 142.199219 0.824219 141.707031 0.621094 C 141.210938 0.414062 140.703125 0.261719 140.175781 0.15625 C 139.652344 0.0507812 139.121094 0 138.585938 0 Z M 203.804688 0 C 203.269531 0 202.738281 0.0507812 202.214844 0.15625 C 201.6875 0.261719 201.179688 0.414062 200.683594 0.621094 C 200.191406 0.824219 199.71875 1.078125 199.273438 1.375 C 198.832031 1.671875 198.417969 2.007812 198.039062 2.386719 C 197.660156 2.765625 197.324219 3.179688 197.027344 3.625 C 196.730469 4.066406 196.476562 4.539062 196.273438 5.03125 C 196.066406 5.527344 195.914062 6.035156 195.808594 6.5625 C 195.703125 7.085938 195.652344 7.617188 195.652344 8.152344 C 195.652344 8.6875 195.703125 9.21875 195.808594 9.742188 C 195.914062 10.265625 196.066406 10.777344 196.273438 11.273438 C 196.476562 11.765625 196.730469 12.234375 197.027344 12.679688 C 197.324219 13.125 197.660156 13.539062 198.039062 13.917969 C 198.417969 14.296875 198.832031 14.632812 199.273438 14.929688 C 199.71875 15.226562 200.191406 15.480469 200.683594 15.683594 C 201.179688 15.886719 201.6875 16.042969 202.214844 16.148438 C 202.738281 16.253906 203.269531 16.304688 203.804688 16.304688 C 204.339844 16.304688 204.871094 16.253906 205.394531 16.148438 C 205.917969 16.042969 206.429688 15.886719 206.925781 15.683594 C 207.417969 15.480469 207.886719 15.226562 208.332031 14.929688 C 208.777344 14.632812 209.191406 14.296875 209.570312 13.917969 C 209.949219 13.539062 210.285156 13.125 210.582031 12.679688 C 210.878906 12.234375 211.132812 11.765625 211.335938 11.273438 C 211.539062 10.777344 211.695312 10.265625 211.800781 9.742188 C 211.902344 9.21875 211.957031 8.6875 211.957031 8.152344 C 211.957031 7.617188 211.902344 7.085938 211.800781 6.5625 C 211.695312 6.035156 211.539062 5.527344 211.335938 5.03125 C 211.132812 4.539062 210.878906 4.066406 210.582031 3.625 C 210.285156 3.179688 209.949219 2.765625 209.570312 2.386719 C 209.191406 2.007812 208.777344 1.671875 208.332031 1.375 C 207.886719 1.078125 207.417969 0.824219 206.925781 0.621094 C 206.429688 0.414062 205.917969 0.261719 205.394531 0.15625 C 204.871094 0.0507812 204.339844 0 203.804688 0 Z M 269.023438 0 C 268.488281 0 267.957031 0.0507812 267.429688 0.15625 C 266.90625 0.261719 266.398438 0.414062 265.902344 0.621094 C 265.40625 0.824219 264.9375 1.078125 264.492188 1.375 C 264.046875 1.671875 263.636719 2.007812 263.257812 2.386719 C 262.878906 2.765625 262.539062 3.179688 262.242188 3.625 C 261.945312 4.066406 261.695312 4.539062 261.488281 5.03125 C 261.285156 5.527344 261.128906 6.035156 261.027344 6.5625 C 260.921875 7.085938 260.871094 7.617188 260.871094 8.152344 C 260.871094 8.6875 260.921875 9.21875 261.027344 9.742188 C 261.128906 10.265625 261.285156 10.777344 261.488281 11.273438 C 261.695312 11.765625 261.945312 12.234375 262.242188 12.679688 C 262.539062 13.125 262.878906 13.539062 263.257812 13.917969 C 263.636719 14.296875 264.046875 14.632812 264.492188 14.929688 C 264.9375 15.226562 265.40625 15.480469 265.902344 15.683594 C 266.398438 15.886719 266.90625 16.042969 267.429688 16.148438 C 267.957031 16.253906 268.488281 16.304688 269.023438 16.304688 C 269.558594 16.304688 270.085938 16.253906 270.613281 16.148438 C 271.136719 16.042969 271.648438 15.886719 272.140625 15.683594 C 272.636719 15.480469 273.105469 15.226562 273.550781 14.929688 C 273.996094 14.632812 274.40625 14.296875 274.785156 13.917969 C 275.164062 13.539062 275.503906 13.125 275.800781 12.679688 C 276.097656 12.234375 276.347656 11.765625 276.554688 11.273438 C 276.757812 10.777344 276.914062 10.265625 277.015625 9.742188 C 277.121094 9.21875 277.175781 8.6875 277.175781 8.152344 C 277.175781 7.617188 277.121094 7.085938 277.015625 6.5625 C 276.914062 6.035156 276.757812 5.527344 276.554688 5.03125 C 276.347656 4.539062 276.097656 4.066406 275.800781 3.625 C 275.503906 3.179688 275.164062 2.765625 274.785156 2.386719 C 274.40625 2.007812 273.996094 1.671875 273.550781 1.375 C 273.105469 1.078125 272.636719 0.824219 272.140625 0.621094 C 271.648438 0.414062 271.136719 0.261719 270.613281 0.15625 C 270.085938 0.0507812 269.558594 0 269.023438 0 Z M 334.238281 0 C 333.703125 0 333.171875 0.0507812 332.648438 0.15625 C 332.125 0.261719 331.613281 0.414062 331.121094 0.621094 C 330.625 0.824219 330.15625 1.078125 329.710938 1.375 C 329.265625 1.671875 328.851562 2.007812 328.476562 2.386719 C 328.097656 2.765625 327.757812 3.179688 327.460938 3.625 C 327.164062 4.066406 326.914062 4.539062 326.707031 5.03125 C 326.503906 5.527344 326.347656 6.035156 326.242188 6.5625 C 326.140625 7.085938 326.085938 7.617188 326.085938 8.152344 C 326.085938 8.6875 326.140625 9.21875 326.242188 9.742188 C 326.347656 10.265625 326.503906 10.777344 326.707031 11.273438 C 326.914062 11.765625 327.164062 12.234375 327.460938 12.679688 C 327.757812 13.125 328.097656 13.539062 328.476562 13.917969 C 328.851562 14.296875 329.265625 14.632812 329.710938 14.929688 C 330.15625 15.226562 330.625 15.480469 331.121094 15.683594 C 331.613281 15.886719 332.125 16.042969 332.648438 16.148438 C 333.171875 16.253906 333.703125 16.304688 334.238281 16.304688 C 334.773438 16.304688 335.304688 16.253906 335.828125 16.148438 C 336.355469 16.042969 336.863281 15.886719 337.359375 15.683594 C 337.851562 15.480469 338.324219 15.226562 338.769531 14.929688 C 339.214844 14.632812 339.625 14.296875 340.003906 13.917969 C 340.382812 13.539062 340.71875 13.125 341.015625 12.679688 C 341.316406 12.234375 341.566406 11.765625 341.769531 11.273438 C 341.976562 10.777344 342.128906 10.265625 342.234375 9.742188 C 342.339844 9.21875 342.390625 8.6875 342.390625 8.152344 C 342.390625 7.617188 342.339844 7.085938 342.234375 6.5625 C 342.128906 6.035156 341.976562 5.527344 341.769531 5.03125 C 341.566406 4.539062 341.316406 4.066406 341.015625 3.625 C 340.71875 3.179688 340.382812 2.765625 340.003906 2.386719 C 339.625 2.007812 339.214844 1.671875 338.769531 1.375 C 338.324219 1.078125 337.851562 0.824219 337.359375 0.621094 C 336.863281 0.414062 336.355469 0.261719 335.828125 0.15625 C 335.304688 0.0507812 334.773438 0 334.238281 0 Z M 171.195312 32.609375 C 170.660156 32.609375 170.128906 32.660156 169.605469 32.765625 C 169.082031 32.871094 168.570312 33.023438 168.074219 33.230469 C 167.582031 33.433594 167.113281 33.683594 166.667969 33.984375 C 166.222656 34.28125 165.808594 34.617188 165.429688 34.996094 C 165.050781 35.375 164.714844 35.785156 164.417969 36.230469 C 164.121094 36.675781 163.867188 37.148438 163.664062 37.640625 C 163.460938 38.136719 163.304688 38.644531 163.199219 39.171875 C 163.09375 39.695312 163.042969 40.226562 163.042969 40.761719 C 163.042969 41.296875 163.09375 41.828125 163.199219 42.351562 C 163.304688 42.875 163.460938 43.386719 163.664062 43.878906 C 163.867188 44.375 164.121094 44.84375 164.417969 45.289062 C 164.714844 45.734375 165.050781 46.148438 165.429688 46.523438 C 165.808594 46.902344 166.222656 47.242188 166.667969 47.539062 C 167.113281 47.835938 167.582031 48.085938 168.074219 48.292969 C 168.570312 48.496094 169.082031 48.652344 169.605469 48.757812 C 170.128906 48.859375 170.660156 48.914062 171.195312 48.914062 C 171.730469 48.914062 172.261719 48.859375 172.785156 48.757812 C 173.3125 48.652344 173.820312 48.496094 174.316406 48.292969 C 174.808594 48.085938 175.28125 47.835938 175.726562 47.539062 C 176.167969 47.242188 176.582031 46.902344 176.960938 46.523438 C 177.339844 46.148438 177.675781 45.734375 177.972656 45.289062 C 178.269531 44.84375 178.523438 44.375 178.726562 43.878906 C 178.933594 43.386719 179.085938 42.875 179.191406 42.351562 C 179.296875 41.828125 179.347656 41.296875 179.347656 40.761719 C 179.347656 40.226562 179.296875 39.695312 179.191406 39.171875 C 179.085938 38.644531 178.933594 38.136719 178.726562 37.640625 C 178.523438 37.148438 178.269531 36.675781 177.972656 36.230469 C 177.675781 35.785156 177.339844 35.375 176.960938 34.996094 C 176.582031 34.617188 176.167969 34.28125 175.726562 33.984375 C 175.28125 33.683594 174.808594 33.433594 174.316406 33.230469 C 173.820312 33.023438 173.3125 32.871094 172.785156 32.765625 C 172.261719 32.660156 171.730469 32.609375 171.195312 32.609375 Z M 236.414062 32.609375 C 235.878906 32.609375 235.347656 32.660156 234.824219 32.765625 C 234.296875 32.871094 233.789062 33.023438 233.292969 33.230469 C 232.796875 33.433594 232.328125 33.683594 231.882812 33.984375 C 231.4375 34.28125 231.027344 34.617188 230.648438 34.996094 C 230.269531 35.375 229.933594 35.785156 229.632812 36.230469 C 229.335938 36.675781 229.085938 37.148438 228.882812 37.640625 C 228.675781 38.136719 228.523438 38.644531 228.417969 39.171875 C 228.3125 39.695312 228.261719 40.226562 228.261719 40.761719 C 228.261719 41.296875 228.3125 41.828125 228.417969 42.351562 C 228.523438 42.875 228.675781 43.386719 228.882812 43.878906 C 229.085938 44.375 229.335938 44.84375 229.632812 45.289062 C 229.933594 45.734375 230.269531 46.148438 230.648438 46.523438 C 231.027344 46.902344 231.4375 47.242188 231.882812 47.539062 C 232.328125 47.835938 232.796875 48.085938 233.292969 48.292969 C 233.789062 48.496094 234.296875 48.652344 234.824219 48.757812 C 235.347656 48.859375 235.878906 48.914062 236.414062 48.914062 C 236.949219 48.914062 237.476562 48.859375 238.003906 48.757812 C 238.527344 48.652344 239.039062 48.496094 239.53125 48.292969 C 240.027344 48.085938 240.496094 47.835938 240.941406 47.539062 C 241.386719 47.242188 241.800781 46.902344 242.175781 46.523438 C 242.554688 46.148438 242.894531 45.734375 243.191406 45.289062 C 243.488281 44.84375 243.738281 44.375 243.945312 43.878906 C 244.148438 43.386719 244.304688 42.875 244.410156 42.351562 C 244.511719 41.828125 244.566406 41.296875 244.566406 40.761719 C 244.566406 40.226562 244.511719 39.695312 244.410156 39.171875 C 244.304688 38.644531 244.148438 38.136719 243.945312 37.640625 C 243.738281 37.148438 243.488281 36.675781 243.191406 36.230469 C 242.894531 35.785156 242.554688 35.375 242.175781 34.996094 C 241.800781 34.617188 241.386719 34.28125 240.941406 33.984375 C 240.496094 33.683594 240.027344 33.433594 239.53125 33.230469 C 239.039062 33.023438 238.527344 32.871094 238.003906 32.765625 C 237.476562 32.660156 236.949219 32.609375 236.414062 32.609375 Z M 301.628906 32.609375 C 301.09375 32.609375 300.566406 32.660156 300.039062 32.765625 C 299.515625 32.871094 299.003906 33.023438 298.511719 33.230469 C 298.015625 33.433594 297.546875 33.683594 297.101562 33.984375 C 296.65625 34.28125 296.246094 34.617188 295.867188 34.996094 C 295.488281 35.375 295.148438 35.785156 294.851562 36.230469 C 294.554688 36.675781 294.304688 37.148438 294.097656 37.640625 C 293.894531 38.136719 293.738281 38.644531 293.636719 39.171875 C 293.53125 39.695312 293.476562 40.226562 293.476562 40.761719 C 293.476562 41.296875 293.53125 41.828125 293.636719 42.351562 C 293.738281 42.875 293.894531 43.386719 294.097656 43.878906 C 294.304688 44.375 294.554688 44.84375 294.851562 45.289062 C 295.148438 45.734375 295.488281 46.148438 295.867188 46.523438 C 296.246094 46.902344 296.65625 47.242188 297.101562 47.539062 C 297.546875 47.835938 298.015625 48.085938 298.511719 48.292969 C 299.003906 48.496094 299.515625 48.652344 300.039062 48.757812 C 300.566406 48.859375 301.09375 48.914062 301.628906 48.914062 C 302.164062 48.914062 302.695312 48.859375 303.222656 48.757812 C 303.746094 48.652344 304.253906 48.496094 304.75 48.292969 C 305.246094 48.085938 305.714844 47.835938 306.160156 47.539062 C 306.605469 47.242188 307.015625 46.902344 307.394531 46.523438 C 307.773438 46.148438 308.109375 45.734375 308.410156 45.289062 C 308.707031 44.84375 308.957031 44.375 309.160156 43.878906 C 309.367188 43.386719 309.519531 42.875 309.625 42.351562 C 309.730469 41.828125 309.78125 41.296875 309.78125 40.761719 C 309.78125 40.226562 309.730469 39.695312 309.625 39.171875 C 309.519531 38.644531 309.367188 38.136719 309.160156 37.640625 C 308.957031 37.148438 308.707031 36.675781 308.410156 36.230469 C 308.109375 35.785156 307.773438 35.375 307.394531 34.996094 C 307.015625 34.617188 306.605469 34.28125 306.160156 33.984375 C 305.714844 33.683594 305.246094 33.433594 304.75 33.230469 C 304.253906 33.023438 303.746094 32.871094 303.222656 32.765625 C 302.695312 32.660156 302.164062 32.609375 301.628906 32.609375 Z M 203.804688 65.21875 C 203.269531 65.21875 202.738281 65.269531 202.214844 65.375 C 201.6875 65.476562 201.179688 65.632812 200.683594 65.839844 C 200.191406 66.042969 199.71875 66.292969 199.273438 66.589844 C 198.832031 66.886719 198.417969 67.226562 198.039062 67.605469 C 197.660156 67.984375 197.324219 68.394531 197.027344 68.839844 C 196.730469 69.285156 196.476562 69.753906 196.273438 70.25 C 196.066406 70.746094 195.914062 71.253906 195.808594 71.777344 C 195.703125 72.304688 195.652344 72.835938 195.652344 73.371094 C 195.652344 73.90625 195.703125 74.433594 195.808594 74.960938 C 195.914062 75.484375 196.066406 75.996094 196.273438 76.488281 C 196.476562 76.984375 196.730469 77.453125 197.027344 77.898438 C 197.324219 78.34375 197.660156 78.753906 198.039062 79.132812 C 198.417969 79.511719 198.832031 79.851562 199.273438 80.148438 C 199.71875 80.445312 200.191406 80.695312 200.683594 80.902344 C 201.179688 81.105469 201.6875 81.261719 202.214844 81.363281 C 202.738281 81.46875 203.269531 81.523438 203.804688 81.523438 C 204.339844 81.523438 204.871094 81.46875 205.394531 81.363281 C 205.917969 81.261719 206.429688 81.105469 206.925781 80.902344 C 207.417969 80.695312 207.886719 80.445312 208.332031 80.148438 C 208.777344 79.851562 209.191406 79.511719 209.570312 79.132812 C 209.949219 78.753906 210.285156 78.34375 210.582031 77.898438 C 210.878906 77.453125 211.132812 76.984375 211.335938 76.488281 C 211.539062 75.996094 211.695312 75.484375 211.800781 74.960938 C 211.902344 74.433594 211.957031 73.90625 211.957031 73.371094 C 211.957031 72.835938 211.902344 72.304688 211.800781 71.777344 C 211.695312 71.253906 211.539062 70.746094 211.335938 70.25 C 211.132812 69.753906 210.878906 69.285156 210.582031 68.839844 C 210.285156 68.394531 209.949219 67.984375 209.570312 67.605469 C 209.191406 67.226562 208.777344 66.886719 208.332031 66.589844 C 207.886719 66.292969 207.417969 66.042969 206.925781 65.839844 C 206.429688 65.632812 205.917969 65.476562 205.394531 65.375 C 204.871094 65.269531 204.339844 65.21875 203.804688 65.21875 Z M 269.023438 65.21875 C 268.488281 65.21875 267.957031 65.269531 267.429688 65.375 C 266.90625 65.476562 266.398438 65.632812 265.902344 65.839844 C 265.40625 66.042969 264.9375 66.292969 264.492188 66.589844 C 264.046875 66.886719 263.636719 67.226562 263.257812 67.605469 C 262.878906 67.984375 262.539062 68.394531 262.242188 68.839844 C 261.945312 69.285156 261.695312 69.753906 261.488281 70.25 C 261.285156 70.746094 261.128906 71.253906 261.027344 71.777344 C 260.921875 72.304688 260.871094 72.835938 260.871094 73.371094 C 260.871094 73.90625 260.921875 74.433594 261.027344 74.960938 C 261.128906 75.484375 261.285156 75.996094 261.488281 76.488281 C 261.695312 76.984375 261.945312 77.453125 262.242188 77.898438 C 262.539062 78.34375 262.878906 78.753906 263.257812 79.132812 C 263.636719 79.511719 264.046875 79.851562 264.492188 80.148438 C 264.9375 80.445312 265.40625 80.695312 265.902344 80.902344 C 266.398438 81.105469 266.90625 81.261719 267.429688 81.363281 C 267.957031 81.46875 268.488281 81.523438 269.023438 81.523438 C 269.558594 81.523438 270.085938 81.46875 270.613281 81.363281 C 271.136719 81.261719 271.648438 81.105469 272.140625 80.902344 C 272.636719 80.695312 273.105469 80.445312 273.550781 80.148438 C 273.996094 79.851562 274.40625 79.511719 274.785156 79.132812 C 275.164062 78.753906 275.503906 78.34375 275.800781 77.898438 C 276.097656 77.453125 276.347656 76.984375 276.554688 76.488281 C 276.757812 75.996094 276.914062 75.484375 277.015625 74.960938 C 277.121094 74.433594 277.175781 73.90625 277.175781 73.371094 C 277.175781 72.835938 277.121094 72.304688 277.015625 71.777344 C 276.914062 71.253906 276.757812 70.746094 276.554688 70.25 C 276.347656 69.753906 276.097656 69.285156 275.800781 68.839844 C 275.503906 68.394531 275.164062 67.984375 274.785156 67.605469 C 274.40625 67.226562 273.996094 66.886719 273.550781 66.589844 C 273.105469 66.292969 272.636719 66.042969 272.140625 65.839844 C 271.648438 65.632812 271.136719 65.476562 270.613281 65.375 C 270.085938 65.269531 269.558594 65.21875 269.023438 65.21875 Z M 334.238281 65.21875 C 333.703125 65.21875 333.171875 65.269531 332.648438 65.375 C 332.125 65.476562 331.613281 65.632812 331.121094 65.839844 C 330.625 66.042969 330.15625 66.292969 329.710938 66.589844 C 329.265625 66.886719 328.851562 67.226562 328.476562 67.605469 C 328.097656 67.984375 327.757812 68.394531 327.460938 68.839844 C 327.164062 69.285156 326.914062 69.753906 326.707031 70.25 C 326.503906 70.746094 326.347656 71.253906 326.242188 71.777344 C 326.140625 72.304688 326.085938 72.835938 326.085938 73.371094 C 326.085938 73.90625 326.140625 74.433594 326.242188 74.960938 C 326.347656 75.484375 326.503906 75.996094 326.707031 76.488281 C 326.914062 76.984375 327.164062 77.453125 327.460938 77.898438 C 327.757812 78.34375 328.097656 78.753906 328.476562 79.132812 C 328.851562 79.511719 329.265625 79.851562 329.710938 80.148438 C 330.15625 80.445312 330.625 80.695312 331.121094 80.902344 C 331.613281 81.105469 332.125 81.261719 332.648438 81.363281 C 333.171875 81.46875 333.703125 81.523438 334.238281 81.523438 C 334.773438 81.523438 335.304688 81.46875 335.828125 81.363281 C 336.355469 81.261719 336.863281 81.105469 337.359375 80.902344 C 337.851562 80.695312 338.324219 80.445312 338.769531 80.148438 C 339.214844 79.851562 339.625 79.511719 340.003906 79.132812 C 340.382812 78.753906 340.71875 78.34375 341.015625 77.898438 C 341.316406 77.453125 341.566406 76.984375 341.769531 76.488281 C 341.976562 75.996094 342.128906 75.484375 342.234375 74.960938 C 342.339844 74.433594 342.390625 73.90625 342.390625 73.371094 C 342.390625 72.835938 342.339844 72.304688 342.234375 71.777344 C 342.128906 71.253906 341.976562 70.746094 341.769531 70.25 C 341.566406 69.753906 341.316406 69.285156 341.015625 68.839844 C 340.71875 68.394531 340.382812 67.984375 340.003906 67.605469 C 339.625 67.226562 339.214844 66.886719 338.769531 66.589844 C 338.324219 66.292969 337.851562 66.042969 337.359375 65.839844 C 336.863281 65.632812 336.355469 65.476562 335.828125 65.375 C 335.304688 65.269531 334.773438 65.21875 334.238281 65.21875 Z M 236.414062 97.824219 C 235.878906 97.824219 235.347656 97.878906 234.824219 97.984375 C 234.296875 98.085938 233.789062 98.242188 233.292969 98.445312 C 232.796875 98.652344 232.328125 98.902344 231.882812 99.199219 C 231.4375 99.496094 231.027344 99.835938 230.648438 100.214844 C 230.269531 100.59375 229.933594 101.003906 229.632812 101.449219 C 229.335938 101.894531 229.085938 102.363281 228.882812 102.859375 C 228.675781 103.351562 228.523438 103.863281 228.417969 104.386719 C 228.3125 104.914062 228.261719 105.441406 228.261719 105.976562 C 228.261719 106.511719 228.3125 107.042969 228.417969 107.570312 C 228.523438 108.09375 228.675781 108.601562 228.882812 109.097656 C 229.085938 109.59375 229.335938 110.0625 229.632812 110.507812 C 229.933594 110.953125 230.269531 111.363281 230.648438 111.742188 C 231.027344 112.121094 231.4375 112.460938 231.882812 112.757812 C 232.328125 113.054688 232.796875 113.304688 233.292969 113.511719 C 233.789062 113.714844 234.296875 113.871094 234.824219 113.972656 C 235.347656 114.078125 235.878906 114.128906 236.414062 114.128906 C 236.949219 114.128906 237.476562 114.078125 238.003906 113.972656 C 238.527344 113.871094 239.039062 113.714844 239.53125 113.511719 C 240.027344 113.304688 240.496094 113.054688 240.941406 112.757812 C 241.386719 112.460938 241.800781 112.121094 242.175781 111.742188 C 242.554688 111.363281 242.894531 110.953125 243.191406 110.507812 C 243.488281 110.0625 243.738281 109.59375 243.945312 109.097656 C 244.148438 108.601562 244.304688 108.09375 244.410156 107.570312 C 244.511719 107.042969 244.566406 106.511719 244.566406 105.976562 C 244.566406 105.441406 244.511719 104.914062 244.410156 104.386719 C 244.304688 103.863281 244.148438 103.351562 243.945312 102.859375 C 243.738281 102.363281 243.488281 101.894531 243.191406 101.449219 C 242.894531 101.003906 242.554688 100.59375 242.175781 100.214844 C 241.800781 99.835938 241.386719 99.496094 240.941406 99.199219 C 240.496094 98.902344 240.027344 98.652344 239.53125 98.445312 C 239.039062 98.242188 238.527344 98.085938 238.003906 97.984375 C 237.476562 97.878906 236.949219 97.824219 236.414062 97.824219 Z M 301.628906 97.824219 C 301.09375 97.824219 300.566406 97.878906 300.039062 97.984375 C 299.515625 98.085938 299.003906 98.242188 298.511719 98.445312 C 298.015625 98.652344 297.546875 98.902344 297.101562 99.199219 C 296.65625 99.496094 296.246094 99.835938 295.867188 100.214844 C 295.488281 100.59375 295.148438 101.003906 294.851562 101.449219 C 294.554688 101.894531 294.304688 102.363281 294.097656 102.859375 C 293.894531 103.351562 293.738281 103.863281 293.636719 104.386719 C 293.53125 104.914062 293.476562 105.441406 293.476562 105.976562 C 293.476562 106.511719 293.53125 107.042969 293.636719 107.570312 C 293.738281 108.09375 293.894531 108.601562 294.097656 109.097656 C 294.304688 109.59375 294.554688 110.0625 294.851562 110.507812 C 295.148438 110.953125 295.488281 111.363281 295.867188 111.742188 C 296.246094 112.121094 296.65625 112.460938 297.101562 112.757812 C 297.546875 113.054688 298.015625 113.304688 298.511719 113.511719 C 299.003906 113.714844 299.515625 113.871094 300.039062 113.972656 C 300.566406 114.078125 301.09375 114.128906 301.628906 114.128906 C 302.164062 114.128906 302.695312 114.078125 303.222656 113.972656 C 303.746094 113.871094 304.253906 113.714844 304.75 113.511719 C 305.246094 113.304688 305.714844 113.054688 306.160156 112.757812 C 306.605469 112.460938 307.015625 112.121094 307.394531 111.742188 C 307.773438 111.363281 308.109375 110.953125 308.410156 110.507812 C 308.707031 110.0625 308.957031 109.59375 309.160156 109.097656 C 309.367188 108.601562 309.519531 108.09375 309.625 107.570312 C 309.730469 107.042969 309.78125 106.511719 309.78125 105.976562 C 309.78125 105.441406 309.730469 104.914062 309.625 104.386719 C 309.519531 103.863281 309.367188 103.351562 309.160156 102.859375 C 308.957031 102.363281 308.707031 101.894531 308.410156 101.449219 C 308.109375 101.003906 307.773438 100.59375 307.394531 100.214844 C 307.015625 99.835938 306.605469 99.496094 306.160156 99.199219 C 305.714844 98.902344 305.246094 98.652344 304.75 98.445312 C 304.253906 98.242188 303.746094 98.085938 303.222656 97.984375 C 302.695312 97.878906 302.164062 97.824219 301.628906 97.824219 Z M 210.109375 122.28125 C 203.835938 122.265625 197.5625 124.640625 192.769531 129.398438 L 129.464844 192.371094 C 124.847656 196.960938 122.300781 203.054688 122.28125 209.535156 C 122.265625 216.035156 124.777344 222.148438 129.367188 226.765625 L 269.882812 367.789062 C 274.660156 372.589844 280.941406 375 287.238281 375 C 293.488281 375 299.742188 372.628906 304.511719 367.882812 L 367.820312 304.910156 C 372.433594 300.320312 374.984375 294.226562 375 287.746094 C 375.015625 281.25 372.503906 275.132812 367.914062 270.519531 L 227.417969 129.496094 C 222.65625 124.707031 216.382812 122.300781 210.109375 122.28125 Z M 8.152344 130.433594 C 7.617188 130.433594 7.085938 130.488281 6.5625 130.589844 C 6.035156 130.695312 5.527344 130.851562 5.03125 131.054688 C 4.539062 131.261719 4.066406 131.511719 3.625 131.808594 C 3.179688 132.105469 2.765625 132.445312 2.386719 132.824219 C 2.007812 133.199219 1.671875 133.613281 1.375 134.058594 C 1.078125 134.503906 0.824219 134.972656 0.621094 135.46875 C 0.414062 135.960938 0.261719 136.472656 0.15625 136.996094 C 0.0507812 137.523438 0 138.050781 0 138.585938 C 0 139.121094 0.0507812 139.652344 0.15625 140.175781 C 0.261719 140.703125 0.414062 141.210938 0.621094 141.707031 C 0.824219 142.199219 1.078125 142.671875 1.375 143.117188 C 1.671875 143.5625 2.007812 143.972656 2.386719 144.351562 C 2.765625 144.730469 3.179688 145.066406 3.625 145.363281 C 4.066406 145.664062 4.539062 145.914062 5.03125 146.117188 C 5.527344 146.324219 6.035156 146.476562 6.5625 146.582031 C 7.085938 146.6875 7.617188 146.738281 8.152344 146.738281 C 8.6875 146.738281 9.21875 146.6875 9.742188 146.582031 C 10.269531 146.476562 10.777344 146.324219 11.273438 146.117188 C 11.765625 145.914062 12.234375 145.664062 12.679688 145.363281 C 13.125 145.066406 13.539062 144.730469 13.917969 144.351562 C 14.296875 143.972656 14.632812 143.5625 14.929688 143.117188 C 15.226562 142.671875 15.480469 142.199219 15.683594 141.707031 C 15.886719 141.210938 16.042969 140.703125 16.148438 140.175781 C 16.253906 139.652344 16.304688 139.121094 16.304688 138.585938 C 16.304688 138.050781 16.253906 137.523438 16.148438 136.996094 C 16.042969 136.472656 15.886719 135.960938 15.683594 135.46875 C 15.480469 134.972656 15.226562 134.503906 14.929688 134.058594 C 14.632812 133.613281 14.296875 133.199219 13.917969 132.824219 C 13.539062 132.445312 13.125 132.105469 12.679688 131.808594 C 12.234375 131.511719 11.765625 131.261719 11.273438 131.054688 C 10.777344 130.851562 10.269531 130.695312 9.742188 130.589844 C 9.21875 130.488281 8.6875 130.433594 8.152344 130.433594 Z M 269.023438 130.433594 C 268.488281 130.433594 267.957031 130.488281 267.429688 130.589844 C 266.90625 130.695312 266.398438 130.851562 265.902344 131.054688 C 265.40625 131.261719 264.9375 131.511719 264.492188 131.808594 C 264.046875 132.105469 263.636719 132.445312 263.257812 132.824219 C 262.878906 133.199219 262.539062 133.613281 262.242188 134.058594 C 261.945312 134.503906 261.695312 134.972656 261.488281 135.46875 C 261.285156 135.960938 261.128906 136.472656 261.027344 136.996094 C 260.921875 137.523438 260.871094 138.050781 260.871094 138.585938 C 260.871094 139.121094 260.921875 139.652344 261.027344 140.175781 C 261.128906 140.703125 261.285156 141.210938 261.488281 141.707031 C 261.695312 142.199219 261.945312 142.671875 262.242188 143.117188 C 262.539062 143.5625 262.878906 143.972656 263.257812 144.351562 C 263.636719 144.730469 264.046875 145.066406 264.492188 145.363281 C 264.9375 145.664062 265.40625 145.914062 265.902344 146.117188 C 266.398438 146.324219 266.90625 146.476562 267.429688 146.582031 C 267.957031 146.6875 268.488281 146.738281 269.023438 146.738281 C 269.558594 146.738281 270.085938 146.6875 270.613281 146.582031 C 271.136719 146.476562 271.648438 146.324219 272.140625 146.117188 C 272.636719 145.914062 273.105469 145.664062 273.550781 145.363281 C 273.996094 145.066406 274.40625 144.730469 274.785156 144.351562 C 275.164062 143.972656 275.503906 143.5625 275.800781 143.117188 C 276.097656 142.671875 276.347656 142.199219 276.554688 141.707031 C 276.757812 141.210938 276.914062 140.703125 277.015625 140.175781 C 277.121094 139.652344 277.175781 139.121094 277.175781 138.585938 C 277.175781 138.050781 277.121094 137.523438 277.015625 136.996094 C 276.914062 136.472656 276.757812 135.960938 276.554688 135.46875 C 276.347656 134.972656 276.097656 134.503906 275.800781 134.058594 C 275.503906 133.613281 275.164062 133.199219 274.785156 132.824219 C 274.40625 132.445312 273.996094 132.105469 273.550781 131.808594 C 273.105469 131.511719 272.636719 131.261719 272.140625 131.054688 C 271.648438 130.851562 271.136719 130.695312 270.613281 130.589844 C 270.085938 130.488281 269.558594 130.433594 269.023438 130.433594 Z M 334.238281 130.433594 C 333.703125 130.433594 333.171875 130.488281 332.648438 130.589844 C 332.125 130.695312 331.613281 130.851562 331.121094 131.054688 C 330.625 131.261719 330.15625 131.511719 329.710938 131.808594 C 329.265625 132.105469 328.851562 132.445312 328.476562 132.824219 C 328.097656 133.199219 327.757812 133.613281 327.460938 134.058594 C 327.164062 134.503906 326.914062 134.972656 326.707031 135.46875 C 326.503906 135.960938 326.347656 136.472656 326.242188 136.996094 C 326.140625 137.523438 326.085938 138.050781 326.085938 138.585938 C 326.085938 139.121094 326.140625 139.652344 326.242188 140.175781 C 326.347656 140.703125 326.503906 141.210938 326.707031 141.707031 C 326.914062 142.199219 327.164062 142.671875 327.460938 143.117188 C 327.757812 143.5625 328.097656 143.972656 328.476562 144.351562 C 328.851562 144.730469 329.265625 145.066406 329.710938 145.363281 C 330.15625 145.664062 330.625 145.914062 331.121094 146.117188 C 331.613281 146.324219 332.125 146.476562 332.648438 146.582031 C 333.171875 146.6875 333.703125 146.738281 334.238281 146.738281 C 334.773438 146.738281 335.304688 146.6875 335.828125 146.582031 C 336.355469 146.476562 336.863281 146.324219 337.359375 146.117188 C 337.851562 145.914062 338.324219 145.664062 338.769531 145.363281 C 339.214844 145.066406 339.625 144.730469 340.003906 144.351562 C 340.382812 143.972656 340.71875 143.5625 341.015625 143.117188 C 341.316406 142.671875 341.566406 142.199219 341.769531 141.707031 C 341.976562 141.210938 342.128906 140.703125 342.234375 140.175781 C 342.339844 139.652344 342.390625 139.121094 342.390625 138.585938 C 342.390625 138.050781 342.339844 137.523438 342.234375 136.996094 C 342.128906 136.472656 341.976562 135.960938 341.769531 135.46875 C 341.566406 134.972656 341.316406 134.503906 341.015625 134.058594 C 340.71875 133.613281 340.382812 133.199219 340.003906 132.824219 C 339.625 132.445312 339.214844 132.105469 338.769531 131.808594 C 338.324219 131.511719 337.851562 131.261719 337.359375 131.054688 C 336.863281 130.851562 336.355469 130.695312 335.828125 130.589844 C 335.304688 130.488281 334.773438 130.433594 334.238281 130.433594 Z M 210.046875 138.570312 C 212.148438 138.570312 214.257812 139.402344 215.859375 141.007812 L 285.945312 211.335938 L 211.351562 285.929688 L 140.910156 215.269531 C 139.402344 213.734375 138.578125 211.71875 138.585938 209.585938 C 138.585938 207.449219 139.433594 205.441406 140.960938 203.933594 L 204.265625 140.960938 C 205.863281 139.378906 207.957031 138.570312 210.046875 138.570312 Z M 40.761719 163.042969 C 40.226562 163.042969 39.695312 163.09375 39.171875 163.199219 C 38.644531 163.304688 38.136719 163.460938 37.640625 163.664062 C 37.148438 163.867188 36.675781 164.121094 36.230469 164.417969 C 35.785156 164.714844 35.375 165.050781 34.996094 165.429688 C 34.617188 165.808594 34.28125 166.222656 33.984375 166.667969 C 33.683594 167.113281 33.433594 167.582031 33.230469 168.074219 C 33.023438 168.570312 32.871094 169.082031 32.765625 169.605469 C 32.660156 170.128906 32.609375 170.660156 32.609375 171.195312 C 32.609375 171.730469 32.660156 172.261719 32.765625 172.785156 C 32.871094 173.3125 33.023438 173.820312 33.230469 174.316406 C 33.433594 174.808594 33.683594 175.28125 33.984375 175.726562 C 34.28125 176.167969 34.617188 176.582031 34.996094 176.960938 C 35.375 177.339844 35.785156 177.675781 36.230469 177.972656 C 36.675781 178.269531 37.148438 178.523438 37.640625 178.726562 C 38.136719 178.933594 38.644531 179.085938 39.171875 179.191406 C 39.695312 179.296875 40.226562 179.347656 40.761719 179.347656 C 41.296875 179.347656 41.828125 179.296875 42.351562 179.191406 C 42.875 179.085938 43.386719 178.933594 43.878906 178.726562 C 44.375 178.523438 44.84375 178.269531 45.289062 177.972656 C 45.734375 177.675781 46.148438 177.339844 46.523438 176.960938 C 46.902344 176.582031 47.242188 176.167969 47.539062 175.726562 C 47.835938 175.28125 48.085938 174.808594 48.292969 174.316406 C 48.496094 173.820312 48.652344 173.3125 48.757812 172.785156 C 48.859375 172.261719 48.914062 171.730469 48.914062 171.195312 C 48.914062 170.660156 48.859375 170.128906 48.757812 169.605469 C 48.652344 169.082031 48.496094 168.570312 48.292969 168.074219 C 48.085938 167.582031 47.835938 167.113281 47.539062 166.667969 C 47.242188 166.222656 46.902344 165.808594 46.523438 165.429688 C 46.148438 165.050781 45.734375 164.714844 45.289062 164.417969 C 44.84375 164.121094 44.375 163.867188 43.878906 163.664062 C 43.386719 163.460938 42.875 163.304688 42.351562 163.199219 C 41.828125 163.09375 41.296875 163.042969 40.761719 163.042969 Z M 301.628906 163.042969 C 301.09375 163.042969 300.566406 163.09375 300.039062 163.199219 C 299.515625 163.304688 299.003906 163.460938 298.511719 163.664062 C 298.015625 163.867188 297.546875 164.121094 297.101562 164.417969 C 296.65625 164.714844 296.246094 165.050781 295.867188 165.429688 C 295.488281 165.808594 295.148438 166.222656 294.851562 166.667969 C 294.554688 167.113281 294.304688 167.582031 294.097656 168.074219 C 293.894531 168.570312 293.738281 169.082031 293.636719 169.605469 C 293.53125 170.128906 293.476562 170.660156 293.476562 171.195312 C 293.476562 171.730469 293.53125 172.261719 293.636719 172.785156 C 293.738281 173.3125 293.894531 173.820312 294.097656 174.316406 C 294.304688 174.808594 294.554688 175.28125 294.851562 175.726562 C 295.148438 176.167969 295.488281 176.582031 295.867188 176.960938 C 296.246094 177.339844 296.65625 177.675781 297.101562 177.972656 C 297.546875 178.269531 298.015625 178.523438 298.511719 178.726562 C 299.003906 178.933594 299.515625 179.085938 300.039062 179.191406 C 300.566406 179.296875 301.09375 179.347656 301.628906 179.347656 C 302.164062 179.347656 302.695312 179.296875 303.222656 179.191406 C 303.746094 179.085938 304.253906 178.933594 304.75 178.726562 C 305.246094 178.523438 305.714844 178.269531 306.160156 177.972656 C 306.605469 177.675781 307.015625 177.339844 307.394531 176.960938 C 307.773438 176.582031 308.109375 176.167969 308.410156 175.726562 C 308.707031 175.28125 308.957031 174.808594 309.160156 174.316406 C 309.367188 173.820312 309.519531 173.3125 309.625 172.785156 C 309.730469 172.261719 309.78125 171.730469 309.78125 171.195312 C 309.78125 170.660156 309.730469 170.128906 309.625 169.605469 C 309.519531 169.082031 309.367188 168.570312 309.160156 168.074219 C 308.957031 167.582031 308.707031 167.113281 308.410156 166.667969 C 308.109375 166.222656 307.773438 165.808594 307.394531 165.429688 C 307.015625 165.050781 306.605469 164.714844 306.160156 164.417969 C 305.714844 164.121094 305.246094 163.867188 304.75 163.664062 C 304.253906 163.460938 303.746094 163.304688 303.222656 163.199219 C 302.695312 163.09375 302.164062 163.042969 301.628906 163.042969 Z M 8.152344 195.652344 C 7.617188 195.652344 7.085938 195.703125 6.5625 195.808594 C 6.035156 195.914062 5.527344 196.066406 5.03125 196.273438 C 4.539062 196.476562 4.066406 196.730469 3.625 197.027344 C 3.179688 197.324219 2.765625 197.660156 2.386719 198.039062 C 2.007812 198.417969 1.671875 198.832031 1.375 199.273438 C 1.078125 199.71875 0.824219 200.191406 0.621094 200.683594 C 0.414062 201.179688 0.261719 201.6875 0.15625 202.214844 C 0.0507812 202.738281 0 203.269531 0 203.804688 C 0 204.339844 0.0507812 204.871094 0.15625 205.394531 C 0.261719 205.917969 0.414062 206.429688 0.621094 206.925781 C 0.824219 207.417969 1.078125 207.886719 1.375 208.332031 C 1.671875 208.777344 2.007812 209.191406 2.386719 209.570312 C 2.765625 209.949219 3.179688 210.285156 3.625 210.582031 C 4.066406 210.878906 4.539062 211.132812 5.03125 211.335938 C 5.527344 211.539062 6.035156 211.695312 6.5625 211.800781 C 7.085938 211.902344 7.617188 211.957031 8.152344 211.957031 C 8.6875 211.957031 9.21875 211.902344 9.742188 211.800781 C 10.269531 211.695312 10.777344 211.539062 11.273438 211.335938 C 11.765625 211.132812 12.234375 210.878906 12.679688 210.582031 C 13.125 210.285156 13.539062 209.949219 13.917969 209.570312 C 14.296875 209.191406 14.632812 208.777344 14.929688 208.332031 C 15.226562 207.886719 15.480469 207.417969 15.683594 206.925781 C 15.886719 206.429688 16.042969 205.917969 16.148438 205.394531 C 16.253906 204.871094 16.304688 204.339844 16.304688 203.804688 C 16.304688 203.269531 16.253906 202.738281 16.148438 202.214844 C 16.042969 201.6875 15.886719 201.179688 15.683594 200.683594 C 15.480469 200.191406 15.226562 199.71875 14.929688 199.273438 C 14.632812 198.832031 14.296875 198.417969 13.917969 198.039062 C 13.539062 197.660156 13.125 197.324219 12.679688 197.027344 C 12.234375 196.730469 11.765625 196.476562 11.273438 196.273438 C 10.777344 196.066406 10.269531 195.914062 9.742188 195.808594 C 9.21875 195.703125 8.6875 195.652344 8.152344 195.652344 Z M 73.371094 195.652344 C 72.835938 195.652344 72.304688 195.703125 71.777344 195.808594 C 71.253906 195.914062 70.746094 196.066406 70.25 196.273438 C 69.753906 196.476562 69.285156 196.730469 68.839844 197.027344 C 68.394531 197.324219 67.984375 197.660156 67.605469 198.039062 C 67.226562 198.417969 66.886719 198.832031 66.589844 199.273438 C 66.292969 199.71875 66.042969 200.191406 65.839844 200.683594 C 65.632812 201.179688 65.476562 201.6875 65.375 202.214844 C 65.269531 202.738281 65.21875 203.269531 65.21875 203.804688 C 65.21875 204.339844 65.269531 204.871094 65.375 205.394531 C 65.476562 205.917969 65.632812 206.429688 65.839844 206.925781 C 66.042969 207.417969 66.292969 207.886719 66.589844 208.332031 C 66.886719 208.777344 67.226562 209.191406 67.605469 209.570312 C 67.984375 209.949219 68.394531 210.285156 68.839844 210.582031 C 69.285156 210.878906 69.753906 211.132812 70.25 211.335938 C 70.746094 211.539062 71.253906 211.695312 71.777344 211.800781 C 72.304688 211.902344 72.835938 211.957031 73.371094 211.957031 C 73.90625 211.957031 74.433594 211.902344 74.960938 211.800781 C 75.484375 211.695312 75.996094 211.539062 76.488281 211.335938 C 76.984375 211.132812 77.453125 210.878906 77.898438 210.582031 C 78.34375 210.285156 78.753906 209.949219 79.132812 209.570312 C 79.511719 209.191406 79.851562 208.777344 80.148438 208.332031 C 80.445312 207.886719 80.695312 207.417969 80.902344 206.925781 C 81.105469 206.429688 81.261719 205.917969 81.363281 205.394531 C 81.46875 204.871094 81.523438 204.339844 81.523438 203.804688 C 81.523438 203.269531 81.46875 202.738281 81.363281 202.214844 C 81.261719 201.6875 81.105469 201.179688 80.902344 200.683594 C 80.695312 200.191406 80.445312 199.71875 80.148438 199.273438 C 79.851562 198.832031 79.511719 198.417969 79.132812 198.039062 C 78.753906 197.660156 78.34375 197.324219 77.898438 197.027344 C 77.453125 196.730469 76.984375 196.476562 76.488281 196.273438 C 75.996094 196.066406 75.484375 195.914062 74.960938 195.808594 C 74.433594 195.703125 73.90625 195.652344 73.371094 195.652344 Z M 334.238281 195.652344 C 333.703125 195.652344 333.171875 195.703125 332.648438 195.808594 C 332.125 195.914062 331.613281 196.066406 331.121094 196.273438 C 330.625 196.476562 330.15625 196.730469 329.710938 197.027344 C 329.265625 197.324219 328.851562 197.660156 328.476562 198.039062 C 328.097656 198.417969 327.757812 198.832031 327.460938 199.273438 C 327.164062 199.71875 326.914062 200.191406 326.707031 200.683594 C 326.503906 201.179688 326.347656 201.6875 326.242188 202.214844 C 326.140625 202.738281 326.085938 203.269531 326.085938 203.804688 C 326.085938 204.339844 326.140625 204.871094 326.242188 205.394531 C 326.347656 205.917969 326.503906 206.429688 326.707031 206.925781 C 326.914062 207.417969 327.164062 207.886719 327.460938 208.332031 C 327.757812 208.777344 328.097656 209.191406 328.476562 209.570312 C 328.851562 209.949219 329.265625 210.285156 329.710938 210.582031 C 330.15625 210.878906 330.625 211.132812 331.121094 211.335938 C 331.613281 211.539062 332.125 211.695312 332.648438 211.800781 C 333.171875 211.902344 333.703125 211.957031 334.238281 211.957031 C 334.773438 211.957031 335.304688 211.902344 335.828125 211.800781 C 336.355469 211.695312 336.863281 211.539062 337.359375 211.335938 C 337.851562 211.132812 338.324219 210.878906 338.769531 210.582031 C 339.214844 210.285156 339.625 209.949219 340.003906 209.570312 C 340.382812 209.191406 340.71875 208.777344 341.015625 208.332031 C 341.316406 207.886719 341.566406 207.417969 341.769531 206.925781 C 341.976562 206.429688 342.128906 205.917969 342.234375 205.394531 C 342.339844 204.871094 342.390625 204.339844 342.390625 203.804688 C 342.390625 203.269531 342.339844 202.738281 342.234375 202.214844 C 342.128906 201.6875 341.976562 201.179688 341.769531 200.683594 C 341.566406 200.191406 341.316406 199.71875 341.015625 199.273438 C 340.71875 198.832031 340.382812 198.417969 340.003906 198.039062 C 339.625 197.660156 339.214844 197.324219 338.769531 197.027344 C 338.324219 196.730469 337.851562 196.476562 337.359375 196.273438 C 336.863281 196.066406 336.355469 195.914062 335.828125 195.808594 C 335.304688 195.703125 334.773438 195.652344 334.238281 195.652344 Z M 40.761719 228.261719 C 40.226562 228.261719 39.695312 228.3125 39.171875 228.417969 C 38.644531 228.523438 38.136719 228.675781 37.640625 228.882812 C 37.148438 229.085938 36.675781 229.335938 36.230469 229.632812 C 35.785156 229.933594 35.375 230.269531 34.996094 230.648438 C 34.617188 231.027344 34.28125 231.4375 33.984375 231.882812 C 33.683594 232.328125 33.433594 232.796875 33.230469 233.292969 C 33.023438 233.789062 32.871094 234.296875 32.765625 234.824219 C 32.660156 235.347656 32.609375 235.878906 32.609375 236.414062 C 32.609375 236.949219 32.660156 237.476562 32.765625 238.003906 C 32.871094 238.527344 33.023438 239.039062 33.230469 239.53125 C 33.433594 240.027344 33.683594 240.496094 33.984375 240.941406 C 34.28125 241.386719 34.617188 241.800781 34.996094 242.175781 C 35.375 242.554688 35.785156 242.894531 36.230469 243.191406 C 36.675781 243.488281 37.148438 243.738281 37.640625 243.945312 C 38.136719 244.148438 38.644531 244.304688 39.171875 244.410156 C 39.695312 244.511719 40.226562 244.566406 40.761719 244.566406 C 41.296875 244.566406 41.828125 244.511719 42.351562 244.410156 C 42.875 244.304688 43.386719 244.148438 43.878906 243.945312 C 44.375 243.738281 44.84375 243.488281 45.289062 243.191406 C 45.734375 242.894531 46.148438 242.554688 46.523438 242.175781 C 46.902344 241.800781 47.242188 241.386719 47.539062 240.941406 C 47.835938 240.496094 48.085938 240.027344 48.292969 239.53125 C 48.496094 239.039062 48.652344 238.527344 48.757812 238.003906 C 48.859375 237.476562 48.914062 236.949219 48.914062 236.414062 C 48.914062 235.878906 48.859375 235.347656 48.757812 234.824219 C 48.652344 234.296875 48.496094 233.789062 48.292969 233.292969 C 48.085938 232.796875 47.835938 232.328125 47.539062 231.882812 C 47.242188 231.4375 46.902344 231.027344 46.523438 230.648438 C 46.148438 230.269531 45.734375 229.933594 45.289062 229.632812 C 44.84375 229.335938 44.375 229.085938 43.878906 228.882812 C 43.386719 228.675781 42.875 228.523438 42.351562 228.417969 C 41.828125 228.3125 41.296875 228.261719 40.761719 228.261719 Z M 105.976562 228.261719 C 105.441406 228.261719 104.914062 228.3125 104.386719 228.417969 C 103.863281 228.523438 103.351562 228.675781 102.859375 228.882812 C 102.363281 229.085938 101.894531 229.335938 101.449219 229.632812 C 101.003906 229.933594 100.59375 230.269531 100.214844 230.648438 C 99.835938 231.027344 99.496094 231.4375 99.199219 231.882812 C 98.902344 232.328125 98.652344 232.796875 98.445312 233.292969 C 98.242188 233.789062 98.085938 234.296875 97.984375 234.824219 C 97.878906 235.347656 97.824219 235.878906 97.824219 236.414062 C 97.824219 236.949219 97.878906 237.476562 97.984375 238.003906 C 98.085938 238.527344 98.242188 239.039062 98.445312 239.53125 C 98.652344 240.027344 98.902344 240.496094 99.199219 240.941406 C 99.496094 241.386719 99.835938 241.800781 100.214844 242.175781 C 100.59375 242.554688 101.003906 242.894531 101.449219 243.191406 C 101.894531 243.488281 102.363281 243.738281 102.859375 243.945312 C 103.351562 244.148438 103.863281 244.304688 104.386719 244.410156 C 104.914062 244.511719 105.441406 244.566406 105.976562 244.566406 C 106.511719 244.566406 107.042969 244.511719 107.570312 244.410156 C 108.09375 244.304688 108.601562 244.148438 109.097656 243.945312 C 109.59375 243.738281 110.0625 243.488281 110.507812 243.191406 C 110.953125 242.894531 111.363281 242.554688 111.742188 242.175781 C 112.121094 241.800781 112.460938 241.386719 112.757812 240.941406 C 113.054688 240.496094 113.304688 240.027344 113.511719 239.53125 C 113.714844 239.039062 113.871094 238.527344 113.972656 238.003906 C 114.078125 237.476562 114.128906 236.949219 114.128906 236.414062 C 114.128906 235.878906 114.078125 235.347656 113.972656 234.824219 C 113.871094 234.296875 113.714844 233.789062 113.511719 233.292969 C 113.304688 232.796875 113.054688 232.328125 112.757812 231.882812 C 112.460938 231.4375 112.121094 231.027344 111.742188 230.648438 C 111.363281 230.269531 110.953125 229.933594 110.507812 229.632812 C 110.0625 229.335938 109.59375 229.085938 109.097656 228.882812 C 108.601562 228.675781 108.09375 228.523438 107.570312 228.417969 C 107.042969 228.3125 106.511719 228.261719 105.976562 228.261719 Z M 8.152344 260.871094 C 7.617188 260.871094 7.085938 260.921875 6.5625 261.027344 C 6.035156 261.128906 5.527344 261.285156 5.03125 261.488281 C 4.539062 261.695312 4.066406 261.945312 3.625 262.242188 C 3.179688 262.539062 2.765625 262.878906 2.386719 263.257812 C 2.007812 263.636719 1.671875 264.046875 1.375 264.492188 C 1.078125 264.9375 0.824219 265.40625 0.621094 265.902344 C 0.414062 266.398438 0.261719 266.90625 0.15625 267.429688 C 0.0507812 267.957031 0 268.488281 0 269.023438 C 0 269.558594 0.0507812 270.085938 0.15625 270.613281 C 0.261719 271.136719 0.414062 271.648438 0.621094 272.140625 C 0.824219 272.636719 1.078125 273.105469 1.375 273.550781 C 1.671875 273.996094 2.007812 274.40625 2.386719 274.785156 C 2.765625 275.164062 3.179688 275.503906 3.625 275.800781 C 4.066406 276.097656 4.539062 276.347656 5.03125 276.554688 C 5.527344 276.757812 6.035156 276.914062 6.5625 277.015625 C 7.085938 277.121094 7.617188 277.175781 8.152344 277.175781 C 8.6875 277.175781 9.21875 277.121094 9.742188 277.015625 C 10.269531 276.914062 10.777344 276.757812 11.273438 276.554688 C 11.765625 276.347656 12.234375 276.097656 12.679688 275.800781 C 13.125 275.503906 13.539062 275.164062 13.917969 274.785156 C 14.296875 274.40625 14.632812 273.996094 14.929688 273.550781 C 15.226562 273.105469 15.480469 272.636719 15.683594 272.140625 C 15.886719 271.648438 16.042969 271.136719 16.148438 270.613281 C 16.253906 270.085938 16.304688 269.558594 16.304688 269.023438 C 16.304688 268.488281 16.253906 267.957031 16.148438 267.429688 C 16.042969 266.90625 15.886719 266.398438 15.683594 265.902344 C 15.480469 265.40625 15.226562 264.9375 14.929688 264.492188 C 14.632812 264.046875 14.296875 263.636719 13.917969 263.257812 C 13.539062 262.878906 13.125 262.539062 12.679688 262.242188 C 12.234375 261.945312 11.765625 261.695312 11.273438 261.488281 C 10.777344 261.285156 10.269531 261.128906 9.742188 261.027344 C 9.21875 260.921875 8.6875 260.871094 8.152344 260.871094 Z M 73.371094 260.871094 C 72.835938 260.871094 72.304688 260.921875 71.777344 261.027344 C 71.253906 261.128906 70.746094 261.285156 70.25 261.488281 C 69.753906 261.695312 69.285156 261.945312 68.839844 262.242188 C 68.394531 262.539062 67.984375 262.878906 67.605469 263.257812 C 67.226562 263.636719 66.886719 264.046875 66.589844 264.492188 C 66.292969 264.9375 66.042969 265.40625 65.839844 265.902344 C 65.632812 266.398438 65.476562 266.90625 65.375 267.429688 C 65.269531 267.957031 65.21875 268.488281 65.21875 269.023438 C 65.21875 269.558594 65.269531 270.085938 65.375 270.613281 C 65.476562 271.136719 65.632812 271.648438 65.839844 272.140625 C 66.042969 272.636719 66.292969 273.105469 66.589844 273.550781 C 66.886719 273.996094 67.226562 274.40625 67.605469 274.785156 C 67.984375 275.164062 68.394531 275.503906 68.839844 275.800781 C 69.285156 276.097656 69.753906 276.347656 70.25 276.554688 C 70.746094 276.757812 71.253906 276.914062 71.777344 277.015625 C 72.304688 277.121094 72.835938 277.175781 73.371094 277.175781 C 73.90625 277.175781 74.433594 277.121094 74.960938 277.015625 C 75.484375 276.914062 75.996094 276.757812 76.488281 276.554688 C 76.984375 276.347656 77.453125 276.097656 77.898438 275.800781 C 78.34375 275.503906 78.753906 275.164062 79.132812 274.785156 C 79.511719 274.40625 79.851562 273.996094 80.148438 273.550781 C 80.445312 273.105469 80.695312 272.636719 80.902344 272.140625 C 81.105469 271.648438 81.261719 271.136719 81.363281 270.613281 C 81.46875 270.085938 81.523438 269.558594 81.523438 269.023438 C 81.523438 268.488281 81.46875 267.957031 81.363281 267.429688 C 81.261719 266.90625 81.105469 266.398438 80.902344 265.902344 C 80.695312 265.40625 80.445312 264.9375 80.148438 264.492188 C 79.851562 264.046875 79.511719 263.636719 79.132812 263.257812 C 78.753906 262.878906 78.34375 262.539062 77.898438 262.242188 C 77.453125 261.945312 76.984375 261.695312 76.488281 261.488281 C 75.996094 261.285156 75.484375 261.128906 74.960938 261.027344 C 74.433594 260.921875 73.90625 260.871094 73.371094 260.871094 Z M 138.585938 260.871094 C 138.050781 260.871094 137.523438 260.921875 136.996094 261.027344 C 136.472656 261.128906 135.960938 261.285156 135.46875 261.488281 C 134.972656 261.695312 134.503906 261.945312 134.058594 262.242188 C 133.613281 262.539062 133.199219 262.878906 132.824219 263.257812 C 132.445312 263.636719 132.105469 264.046875 131.808594 264.492188 C 131.511719 264.9375 131.261719 265.40625 131.054688 265.902344 C 130.851562 266.398438 130.695312 266.90625 130.589844 267.429688 C 130.488281 267.957031 130.433594 268.488281 130.433594 269.023438 C 130.433594 269.558594 130.488281 270.085938 130.589844 270.613281 C 130.695312 271.136719 130.851562 271.648438 131.054688 272.140625 C 131.261719 272.636719 131.511719 273.105469 131.808594 273.550781 C 132.105469 273.996094 132.445312 274.40625 132.824219 274.785156 C 133.199219 275.164062 133.613281 275.503906 134.058594 275.800781 C 134.503906 276.097656 134.972656 276.347656 135.46875 276.554688 C 135.960938 276.757812 136.472656 276.914062 136.996094 277.015625 C 137.523438 277.121094 138.050781 277.175781 138.585938 277.175781 C 139.121094 277.175781 139.652344 277.121094 140.175781 277.015625 C 140.703125 276.914062 141.210938 276.757812 141.707031 276.554688 C 142.199219 276.347656 142.671875 276.097656 143.117188 275.800781 C 143.5625 275.503906 143.972656 275.164062 144.351562 274.785156 C 144.730469 274.40625 145.066406 273.996094 145.363281 273.550781 C 145.664062 273.105469 145.914062 272.636719 146.117188 272.140625 C 146.324219 271.648438 146.476562 271.136719 146.582031 270.613281 C 146.6875 270.085938 146.738281 269.558594 146.738281 269.023438 C 146.738281 268.488281 146.6875 267.957031 146.582031 267.429688 C 146.476562 266.90625 146.324219 266.398438 146.117188 265.902344 C 145.914062 265.40625 145.664062 264.9375 145.363281 264.492188 C 145.066406 264.046875 144.730469 263.636719 144.351562 263.257812 C 143.972656 262.878906 143.5625 262.539062 143.117188 262.242188 C 142.671875 261.945312 142.199219 261.695312 141.707031 261.488281 C 141.210938 261.285156 140.703125 261.128906 140.175781 261.027344 C 139.652344 260.921875 139.121094 260.871094 138.585938 260.871094 Z M 40.761719 293.476562 C 40.226562 293.476562 39.695312 293.53125 39.171875 293.636719 C 38.644531 293.738281 38.136719 293.894531 37.640625 294.097656 C 37.148438 294.304688 36.675781 294.554688 36.230469 294.851562 C 35.785156 295.148438 35.375 295.488281 34.996094 295.867188 C 34.617188 296.246094 34.28125 296.65625 33.984375 297.101562 C 33.683594 297.546875 33.433594 298.015625 33.230469 298.511719 C 33.023438 299.003906 32.871094 299.515625 32.765625 300.039062 C 32.660156 300.566406 32.609375 301.09375 32.609375 301.628906 C 32.609375 302.164062 32.660156 302.695312 32.765625 303.222656 C 32.871094 303.746094 33.023438 304.253906 33.230469 304.75 C 33.433594 305.246094 33.683594 305.714844 33.984375 306.160156 C 34.28125 306.605469 34.617188 307.015625 34.996094 307.394531 C 35.375 307.773438 35.785156 308.109375 36.230469 308.410156 C 36.675781 308.707031 37.148438 308.957031 37.640625 309.160156 C 38.136719 309.367188 38.644531 309.519531 39.171875 309.625 C 39.695312 309.730469 40.226562 309.78125 40.761719 309.78125 C 41.296875 309.78125 41.828125 309.730469 42.351562 309.625 C 42.875 309.519531 43.386719 309.367188 43.878906 309.160156 C 44.375 308.957031 44.84375 308.707031 45.289062 308.410156 C 45.734375 308.109375 46.148438 307.773438 46.523438 307.394531 C 46.902344 307.015625 47.242188 306.605469 47.539062 306.160156 C 47.835938 305.714844 48.085938 305.246094 48.292969 304.75 C 48.496094 304.253906 48.652344 303.746094 48.757812 303.222656 C 48.859375 302.695312 48.914062 302.164062 48.914062 301.628906 C 48.914062 301.09375 48.859375 300.566406 48.757812 300.039062 C 48.652344 299.515625 48.496094 299.003906 48.292969 298.511719 C 48.085938 298.015625 47.835938 297.546875 47.539062 297.101562 C 47.242188 296.65625 46.902344 296.246094 46.523438 295.867188 C 46.148438 295.488281 45.734375 295.148438 45.289062 294.851562 C 44.84375 294.554688 44.375 294.304688 43.878906 294.097656 C 43.386719 293.894531 42.875 293.738281 42.351562 293.636719 C 41.828125 293.53125 41.296875 293.476562 40.761719 293.476562 Z M 105.976562 293.476562 C 105.441406 293.476562 104.914062 293.53125 104.386719 293.636719 C 103.863281 293.738281 103.351562 293.894531 102.859375 294.097656 C 102.363281 294.304688 101.894531 294.554688 101.449219 294.851562 C 101.003906 295.148438 100.59375 295.488281 100.214844 295.867188 C 99.835938 296.246094 99.496094 296.65625 99.199219 297.101562 C 98.902344 297.546875 98.652344 298.015625 98.445312 298.511719 C 98.242188 299.003906 98.085938 299.515625 97.984375 300.039062 C 97.878906 300.566406 97.824219 301.09375 97.824219 301.628906 C 97.824219 302.164062 97.878906 302.695312 97.984375 303.222656 C 98.085938 303.746094 98.242188 304.253906 98.445312 304.75 C 98.652344 305.246094 98.902344 305.714844 99.199219 306.160156 C 99.496094 306.605469 99.835938 307.015625 100.214844 307.394531 C 100.59375 307.773438 101.003906 308.109375 101.449219 308.410156 C 101.894531 308.707031 102.363281 308.957031 102.859375 309.160156 C 103.351562 309.367188 103.863281 309.519531 104.386719 309.625 C 104.914062 309.730469 105.441406 309.78125 105.976562 309.78125 C 106.511719 309.78125 107.042969 309.730469 107.570312 309.625 C 108.09375 309.519531 108.601562 309.367188 109.097656 309.160156 C 109.59375 308.957031 110.0625 308.707031 110.507812 308.410156 C 110.953125 308.109375 111.363281 307.773438 111.742188 307.394531 C 112.121094 307.015625 112.460938 306.605469 112.757812 306.160156 C 113.054688 305.714844 113.304688 305.246094 113.511719 304.75 C 113.714844 304.253906 113.871094 303.746094 113.972656 303.222656 C 114.078125 302.695312 114.128906 302.164062 114.128906 301.628906 C 114.128906 301.09375 114.078125 300.566406 113.972656 300.039062 C 113.871094 299.515625 113.714844 299.003906 113.511719 298.511719 C 113.304688 298.015625 113.054688 297.546875 112.757812 297.101562 C 112.460938 296.65625 112.121094 296.246094 111.742188 295.867188 C 111.363281 295.488281 110.953125 295.148438 110.507812 294.851562 C 110.0625 294.554688 109.59375 294.304688 109.097656 294.097656 C 108.601562 293.894531 108.09375 293.738281 107.570312 293.636719 C 107.042969 293.53125 106.511719 293.476562 105.976562 293.476562 Z M 171.195312 293.476562 C 170.660156 293.476562 170.128906 293.53125 169.605469 293.636719 C 169.082031 293.738281 168.570312 293.894531 168.074219 294.097656 C 167.582031 294.304688 167.113281 294.554688 166.667969 294.851562 C 166.222656 295.148438 165.808594 295.488281 165.429688 295.867188 C 165.050781 296.246094 164.714844 296.65625 164.417969 297.101562 C 164.121094 297.546875 163.867188 298.015625 163.664062 298.511719 C 163.460938 299.003906 163.304688 299.515625 163.199219 300.039062 C 163.09375 300.566406 163.042969 301.09375 163.042969 301.628906 C 163.042969 302.164062 163.09375 302.695312 163.199219 303.222656 C 163.304688 303.746094 163.460938 304.253906 163.664062 304.75 C 163.867188 305.246094 164.121094 305.714844 164.417969 306.160156 C 164.714844 306.605469 165.050781 307.015625 165.429688 307.394531 C 165.808594 307.773438 166.222656 308.109375 166.667969 308.410156 C 167.113281 308.707031 167.582031 308.957031 168.074219 309.160156 C 168.570312 309.367188 169.082031 309.519531 169.605469 309.625 C 170.128906 309.730469 170.660156 309.78125 171.195312 309.78125 C 171.730469 309.78125 172.261719 309.730469 172.785156 309.625 C 173.3125 309.519531 173.820312 309.367188 174.316406 309.160156 C 174.808594 308.957031 175.28125 308.707031 175.726562 308.410156 C 176.167969 308.109375 176.582031 307.773438 176.960938 307.394531 C 177.339844 307.015625 177.675781 306.605469 177.972656 306.160156 C 178.269531 305.714844 178.523438 305.246094 178.726562 304.75 C 178.933594 304.253906 179.085938 303.746094 179.191406 303.222656 C 179.296875 302.695312 179.347656 302.164062 179.347656 301.628906 C 179.347656 301.09375 179.296875 300.566406 179.191406 300.039062 C 179.085938 299.515625 178.933594 299.003906 178.726562 298.511719 C 178.523438 298.015625 178.269531 297.546875 177.972656 297.101562 C 177.675781 296.65625 177.339844 296.246094 176.960938 295.867188 C 176.582031 295.488281 176.167969 295.148438 175.726562 294.851562 C 175.28125 294.554688 174.808594 294.304688 174.316406 294.097656 C 173.820312 293.894531 173.3125 293.738281 172.785156 293.636719 C 172.261719 293.53125 171.730469 293.476562 171.195312 293.476562 Z M 8.152344 326.085938 C 7.617188 326.085938 7.085938 326.140625 6.5625 326.242188 C 6.035156 326.347656 5.527344 326.503906 5.03125 326.707031 C 4.539062 326.914062 4.066406 327.164062 3.625 327.460938 C 3.179688 327.757812 2.765625 328.097656 2.386719 328.476562 C 2.007812 328.851562 1.671875 329.265625 1.375 329.710938 C 1.078125 330.15625 0.824219 330.625 0.621094 331.121094 C 0.414062 331.613281 0.261719 332.125 0.15625 332.648438 C 0.0507812 333.171875 0 333.703125 0 334.238281 C 0 334.773438 0.0507812 335.304688 0.15625 335.828125 C 0.261719 336.355469 0.414062 336.863281 0.621094 337.359375 C 0.824219 337.851562 1.078125 338.324219 1.375 338.769531 C 1.671875 339.214844 2.007812 339.625 2.386719 340.003906 C 2.765625 340.382812 3.179688 340.71875 3.625 341.015625 C 4.066406 341.316406 4.539062 341.566406 5.03125 341.769531 C 5.527344 341.976562 6.035156 342.128906 6.5625 342.234375 C 7.085938 342.339844 7.617188 342.390625 8.152344 342.390625 C 8.6875 342.390625 9.21875 342.339844 9.742188 342.234375 C 10.269531 342.128906 10.777344 341.976562 11.273438 341.769531 C 11.765625 341.566406 12.234375 341.316406 12.679688 341.015625 C 13.125 340.71875 13.539062 340.382812 13.917969 340.003906 C 14.296875 339.625 14.632812 339.214844 14.929688 338.769531 C 15.226562 338.324219 15.480469 337.851562 15.683594 337.359375 C 15.886719 336.863281 16.042969 336.355469 16.148438 335.828125 C 16.253906 335.304688 16.304688 334.773438 16.304688 334.238281 C 16.304688 333.703125 16.253906 333.171875 16.148438 332.648438 C 16.042969 332.125 15.886719 331.613281 15.683594 331.121094 C 15.480469 330.625 15.226562 330.15625 14.929688 329.710938 C 14.632812 329.265625 14.296875 328.851562 13.917969 328.476562 C 13.539062 328.097656 13.125 327.757812 12.679688 327.460938 C 12.234375 327.164062 11.765625 326.914062 11.273438 326.707031 C 10.777344 326.503906 10.269531 326.347656 9.742188 326.242188 C 9.21875 326.140625 8.6875 326.085938 8.152344 326.085938 Z M 73.371094 326.085938 C 72.835938 326.085938 72.304688 326.140625 71.777344 326.242188 C 71.253906 326.347656 70.746094 326.503906 70.25 326.707031 C 69.753906 326.914062 69.285156 327.164062 68.839844 327.460938 C 68.394531 327.757812 67.984375 328.097656 67.605469 328.476562 C 67.226562 328.851562 66.886719 329.265625 66.589844 329.710938 C 66.292969 330.15625 66.042969 330.625 65.839844 331.121094 C 65.632812 331.613281 65.476562 332.125 65.375 332.648438 C 65.269531 333.171875 65.21875 333.703125 65.21875 334.238281 C 65.21875 334.773438 65.269531 335.304688 65.375 335.828125 C 65.476562 336.355469 65.632812 336.863281 65.839844 337.359375 C 66.042969 337.851562 66.292969 338.324219 66.589844 338.769531 C 66.886719 339.214844 67.226562 339.625 67.605469 340.003906 C 67.984375 340.382812 68.394531 340.71875 68.839844 341.015625 C 69.285156 341.316406 69.753906 341.566406 70.25 341.769531 C 70.746094 341.976562 71.253906 342.128906 71.777344 342.234375 C 72.304688 342.339844 72.835938 342.390625 73.371094 342.390625 C 73.90625 342.390625 74.433594 342.339844 74.960938 342.234375 C 75.484375 342.128906 75.996094 341.976562 76.488281 341.769531 C 76.984375 341.566406 77.453125 341.316406 77.898438 341.015625 C 78.34375 340.71875 78.753906 340.382812 79.132812 340.003906 C 79.511719 339.625 79.851562 339.214844 80.148438 338.769531 C 80.445312 338.324219 80.695312 337.851562 80.902344 337.359375 C 81.105469 336.863281 81.261719 336.355469 81.363281 335.828125 C 81.46875 335.304688 81.523438 334.773438 81.523438 334.238281 C 81.523438 333.703125 81.46875 333.171875 81.363281 332.648438 C 81.261719 332.125 81.105469 331.613281 80.902344 331.121094 C 80.695312 330.625 80.445312 330.15625 80.148438 329.710938 C 79.851562 329.265625 79.511719 328.851562 79.132812 328.476562 C 78.753906 328.097656 78.34375 327.757812 77.898438 327.460938 C 77.453125 327.164062 76.984375 326.914062 76.488281 326.707031 C 75.996094 326.503906 75.484375 326.347656 74.960938 326.242188 C 74.433594 326.140625 73.90625 326.085938 73.371094 326.085938 Z M 138.585938 326.085938 C 138.050781 326.085938 137.523438 326.140625 136.996094 326.242188 C 136.472656 326.347656 135.960938 326.503906 135.46875 326.707031 C 134.972656 326.914062 134.503906 327.164062 134.058594 327.460938 C 133.613281 327.757812 133.199219 328.097656 132.824219 328.476562 C 132.445312 328.851562 132.105469 329.265625 131.808594 329.710938 C 131.511719 330.15625 131.261719 330.625 131.054688 331.121094 C 130.851562 331.613281 130.695312 332.125 130.589844 332.648438 C 130.488281 333.171875 130.433594 333.703125 130.433594 334.238281 C 130.433594 334.773438 130.488281 335.304688 130.589844 335.828125 C 130.695312 336.355469 130.851562 336.863281 131.054688 337.359375 C 131.261719 337.851562 131.511719 338.324219 131.808594 338.769531 C 132.105469 339.214844 132.445312 339.625 132.824219 340.003906 C 133.199219 340.382812 133.613281 340.71875 134.058594 341.015625 C 134.503906 341.316406 134.972656 341.566406 135.46875 341.769531 C 135.960938 341.976562 136.472656 342.128906 136.996094 342.234375 C 137.523438 342.339844 138.050781 342.390625 138.585938 342.390625 C 139.121094 342.390625 139.652344 342.339844 140.175781 342.234375 C 140.703125 342.128906 141.210938 341.976562 141.707031 341.769531 C 142.199219 341.566406 142.671875 341.316406 143.117188 341.015625 C 143.5625 340.71875 143.972656 340.382812 144.351562 340.003906 C 144.730469 339.625 145.066406 339.214844 145.363281 338.769531 C 145.664062 338.324219 145.914062 337.851562 146.117188 337.359375 C 146.324219 336.863281 146.476562 336.355469 146.582031 335.828125 C 146.6875 335.304688 146.738281 334.773438 146.738281 334.238281 C 146.738281 333.703125 146.6875 333.171875 146.582031 332.648438 C 146.476562 332.125 146.324219 331.613281 146.117188 331.121094 C 145.914062 330.625 145.664062 330.15625 145.363281 329.710938 C 145.066406 329.265625 144.730469 328.851562 144.351562 328.476562 C 143.972656 328.097656 143.5625 327.757812 143.117188 327.460938 C 142.671875 327.164062 142.199219 326.914062 141.707031 326.707031 C 141.210938 326.503906 140.703125 326.347656 140.175781 326.242188 C 139.652344 326.140625 139.121094 326.085938 138.585938 326.085938 Z M 203.804688 326.085938 C 203.269531 326.085938 202.738281 326.140625 202.214844 326.242188 C 201.6875 326.347656 201.179688 326.503906 200.683594 326.707031 C 200.191406 326.914062 199.71875 327.164062 199.273438 327.460938 C 198.832031 327.757812 198.417969 328.097656 198.039062 328.476562 C 197.660156 328.851562 197.324219 329.265625 197.027344 329.710938 C 196.730469 330.15625 196.476562 330.625 196.273438 331.121094 C 196.066406 331.613281 195.914062 332.125 195.808594 332.648438 C 195.703125 333.171875 195.652344 333.703125 195.652344 334.238281 C 195.652344 334.773438 195.703125 335.304688 195.808594 335.828125 C 195.914062 336.355469 196.066406 336.863281 196.273438 337.359375 C 196.476562 337.851562 196.730469 338.324219 197.027344 338.769531 C 197.324219 339.214844 197.660156 339.625 198.039062 340.003906 C 198.417969 340.382812 198.832031 340.71875 199.273438 341.015625 C 199.71875 341.316406 200.191406 341.566406 200.683594 341.769531 C 201.179688 341.976562 201.6875 342.128906 202.214844 342.234375 C 202.738281 342.339844 203.269531 342.390625 203.804688 342.390625 C 204.339844 342.390625 204.871094 342.339844 205.394531 342.234375 C 205.917969 342.128906 206.429688 341.976562 206.925781 341.769531 C 207.417969 341.566406 207.886719 341.316406 208.332031 341.015625 C 208.777344 340.71875 209.191406 340.382812 209.570312 340.003906 C 209.949219 339.625 210.285156 339.214844 210.582031 338.769531 C 210.878906 338.324219 211.132812 337.851562 211.335938 337.359375 C 211.539062 336.863281 211.695312 336.355469 211.800781 335.828125 C 211.902344 335.304688 211.957031 334.773438 211.957031 334.238281 C 211.957031 333.703125 211.902344 333.171875 211.800781 332.648438 C 211.695312 332.125 211.539062 331.613281 211.335938 331.121094 C 211.132812 330.625 210.878906 330.15625 210.582031 329.710938 C 210.285156 329.265625 209.949219 328.851562 209.570312 328.476562 C 209.191406 328.097656 208.777344 327.757812 208.332031 327.460938 C 207.886719 327.164062 207.417969 326.914062 206.925781 326.707031 C 206.429688 326.503906 205.917969 326.347656 205.394531 326.242188 C 204.871094 326.140625 204.339844 326.085938 203.804688 326.085938 Z M 203.804688 326.085938 "/>
</g>
</svg>
